# xmcd
#
# Track frame offsets:
#	150
#	20179
#	41120
#	57522
#	84175
#	102419
#	119019
#	133973
#	171613
#	184771
#	202029
#	210165
#	221704
#	245673
#	262707
#
# Disc length: 3785 seconds
#
# Revision: 0
# Processed by: cddbd v1.4PL0 Copyright (c) Steve Scherf et al.
# Submitted via: dBpowerAMP V4.0
#
DISCID=ea0ec70f
DTITLE=Jay Gordan - Eletric Redemption
DYEAR=1900
DGENRE=Blues
TTITLE0=Message To Collins
TTITLE1=Drippin' Blues
TTITLE2=Lucky Thirteen
TTITLE3=Strech Neck Lill
TTITLE4=Jaybird Stomp
TTITLE5=El Diablos Blues
TTITLE6=Upside The Head
TTITLE7=Blacktop Alley
TTITLE8=Farmdog
TTITLE9=Tears
TTITLE10=47 Beers
TTITLE11=Drivin' Force
TTITLE12=Savage Resurrection
TTITLE13=Blues For The Eternal Angel
TTITLE14=Electric Redemption
EXTD=Skip
EXTT0=
EXTT1=
EXTT2=
EXTT3=
EXTT4=
EXTT5=
EXTT6=
EXTT7=
EXTT8=
EXTT9=
EXTT10=
EXTT11=
EXTT12=
EXTT13=
EXTT14=
PLAYORDER=
